<svg xmlns="http://www.w3.org/2000/svg" xml:space="preserve" stroke-miterlimit="10"
    style="fill-rule:nonzero;clip-rule:evenodd;stroke-linecap:round;stroke-linejoin:round"
    viewBox="0 0 24 24"><g fill="#328d2b"><path d="M4.968.957A4.011 4.011 0 0 0 .957 4.968v14.194a4.011 4.011 0 0 0 4.011 4.01h14.194a4.011 4.011 0 0 0 4.01-4.01V4.968a4.011 4.011 0 0 0-4.01-4.011H4.968Zm-2.16 4.011a2.16 2.16 0 0 1 2.16-2.16h14.194a2.16 2.16 0 0 1 2.16 2.16v14.194a2.16 2.16 0 0 1-2.16 2.16H4.968a2.16 2.16 0 0 1-2.16-2.16V4.968Zm7.443 3.74A.926.926 0 1 0 8.94 7.4l-4.01 4.011a.926.926 0 0 0 0 1.31l4.01 4.01a.926.926 0 0 0 1.31-1.309l-3.357-3.356 3.357-3.357ZM15.188 7.4a.926.926 0 0 0-1.31 1.31l3.357 3.356-3.356 3.357a.926.926 0 1 0 1.309 1.308l4.011-4.01a.926.926 0 0 0 0-1.31L15.188 7.4Z"/><path d="M11.94 14.181a.162.162 0 0 0 .23 0l1.084-1.078a.162.162 0 0 0-.23-.23l-.805.803.007-2.96a.162.162 0 1 0-.325-.002l-.007 2.961-.802-.806a.162.162 0 1 0-.23.229l1.079 1.083Zm1.53-3.95a.162.162 0 1 0 0-.324L10.66 9.9a.162.162 0 1 0-.001.325l2.811.006Z"/></g></svg>